<svg width="24" height="24" viewBox="0 0 24 24" fill="none" xmlns="http://www.w3.org/2000/svg">
<g clip-path="url(#clip0_128_72)">
<path fill-rule="evenodd" clip-rule="evenodd" d="M2.55914 5.68751e-06C2.2512 -0.00110358 2.00006 0.254043 2.00006 0.567986V24.4231C1.99788 24.5751 2.05575 24.7227 2.16058 24.8303C2.2665 24.939 2.40954 25 2.55914 25H20.4496C20.5981 24.9978 20.739 24.9357 20.8416 24.8269C20.9453 24.7193 21.0021 24.574 20.9999 24.4231V0.56798C20.9999 0.257352 20.7542 0.00443024 20.4496 0L2.55914 5.68751e-06ZM4.51591 3.80717C4.53338 3.80607 4.55085 3.80607 4.56832 3.80717H18.4318C18.5803 3.80607 18.7233 3.86597 18.8281 3.97247C18.933 4.07896 18.9919 4.22429 18.9919 4.37516C18.9919 4.52604 18.933 4.67026 18.8281 4.77675C18.7233 4.88325 18.5803 4.94315 18.4318 4.94315H4.56832C4.25929 4.95758 3.99722 4.71463 3.98302 4.40181C3.96882 4.089 4.2069 3.8216 4.51591 3.80717ZM4.46349 6.24773C4.48096 6.24662 4.49844 6.24662 4.51591 6.24773H18.4928C18.6413 6.24662 18.7844 6.30652 18.8892 6.41302C18.994 6.51952 19.053 6.66484 19.053 6.81572C19.053 6.9666 18.994 7.11081 18.8892 7.21731C18.7844 7.3238 18.6413 7.38371 18.4928 7.38371H4.51591C4.20688 7.39813 3.94481 7.15518 3.93061 6.84237C3.91641 6.52841 4.15449 6.26215 4.46349 6.24773Z" fill="white"/>
</g>
<defs>
<clipPath id="clip0_128_72">
<rect width="24" height="24" fill="white"/>
</clipPath>
</defs>
</svg>
