<svg width="46" height="46" viewBox="0 0 46 46" fill="none" xmlns="http://www.w3.org/2000/svg">
<path d="M2.62198 0.276001H43.332C44.574 0.276001 45.586 1.518 45.586 2.53V43.24C45.586 44.482 44.574 45.494 43.332 45.494H2.62198C1.37998 45.494 0.367981 44.252 0.367981 43.24V2.576C0.367981 1.288 1.37998 0.276001 2.62198 0.276001Z" fill="white"/>
<path d="M14.996 16.744C14.996 16.698 14.996 17.112 15.226 17.48C15.41 17.894 15.824 18.262 16.514 18.446C16.56 18.722 16.744 19.32 17.02 20.102C17.434 21.114 18.124 22.264 19.228 23.138C19.32 23.23 20.424 24.288 22.31 24.288C23.138 24.288 24.058 24.104 25.162 23.598C25.162 23.598 25.852 23.23 26.634 22.402C27.37 21.574 28.198 20.286 28.566 18.492C28.75 18.492 28.98 18.4 29.302 18.216C29.716 17.94 30.084 17.526 30.222 16.698C30.222 16.698 30.222 16.284 30.038 15.778C29.946 15.548 29.808 15.318 29.624 15.134C29.44 14.996 29.21 14.858 28.98 14.812H29.026L29.394 12.512C29.67 8.924 27.186 8.004 27.186 8.004C27.14 6.808 26.082 6.072 26.082 6.072C24.058 4.876 19.872 6.486 19.872 6.486C16.652 7.268 15.916 9.476 15.916 9.476C14.904 11.776 15.916 14.674 16.008 14.95C15.916 14.996 15.778 15.088 15.64 15.226C15.318 15.548 14.996 16.008 14.996 16.744Z" fill="url(#paint0_linear_106_11433)"/>
<path d="M31.786 27.232C31.326 26.91 30.774 26.634 30.176 26.312C30.13 26.312 30.13 26.266 30.084 26.266C29.946 26.22 29.808 26.128 29.67 26.082C28.474 25.622 27.324 25.254 26.128 25.07C25.622 25.484 25.208 25.714 25.208 25.714C24.104 26.22 23.184 26.404 22.356 26.404C20.424 26.404 19.366 25.346 19.274 25.254L19.136 25.116C17.71 25.392 16.514 25.714 15.824 25.944V25.898C15.824 25.898 15.502 25.99 15.088 26.22C13.8 26.818 11.178 28.382 10.304 31.51V36.248C10.304 36.248 18.262 41.4 30.084 38.134C28.888 36.846 28.152 35.19 28.152 33.35C28.244 30.682 29.67 28.428 31.786 27.232Z" fill="url(#paint1_linear_106_11433)"/>
<path d="M35.19 39.514C38.5689 39.514 41.308 36.7749 41.308 33.396C41.308 30.0171 38.5689 27.278 35.19 27.278C31.8111 27.278 29.072 30.0171 29.072 33.396C29.072 36.7749 31.8111 39.514 35.19 39.514Z" fill="#591E71"/>
<path d="M35.5085 35.3565H34.6912C34.6941 35.0753 34.719 34.8453 34.7659 34.6666C34.8157 34.4849 34.8962 34.3194 35.0076 34.17C35.1189 34.0206 35.2668 33.8506 35.4514 33.6602C35.5862 33.5225 35.7092 33.3936 35.8206 33.2735C35.9348 33.1505 36.0271 33.0186 36.0974 32.878C36.1677 32.7344 36.2029 32.563 36.2029 32.3638C36.2029 32.1617 36.1663 31.9874 36.093 31.8409C36.0227 31.6944 35.9172 31.5816 35.7766 31.5025C35.6389 31.4234 35.4675 31.3839 35.2625 31.3839C35.0925 31.3839 34.9314 31.4146 34.7791 31.4761C34.6267 31.5377 34.5037 31.6329 34.4099 31.7618C34.3162 31.8878 34.2678 32.0533 34.2649 32.2584H33.4519C33.4578 31.9273 33.5398 31.6431 33.698 31.4058C33.8591 31.1685 34.0759 30.9869 34.3484 30.8609C34.6208 30.7349 34.9255 30.6719 35.2625 30.6719C35.6345 30.6719 35.9509 30.7393 36.2117 30.8741C36.4753 31.0089 36.676 31.2022 36.8137 31.4542C36.9514 31.7032 37.0203 31.9991 37.0203 32.3419C37.0203 32.6055 36.9661 32.8487 36.8577 33.0714C36.7522 33.2911 36.616 33.4976 36.449 33.691C36.282 33.8843 36.1047 34.0689 35.9172 34.2447C35.7561 34.3941 35.6477 34.5626 35.592 34.7501C35.5364 34.9376 35.5085 35.1397 35.5085 35.3565ZM34.656 36.7496C34.656 36.6177 34.697 36.5064 34.7791 36.4156C34.8611 36.3248 34.9797 36.2794 35.135 36.2794C35.2932 36.2794 35.4133 36.3248 35.4954 36.4156C35.5774 36.5064 35.6184 36.6177 35.6184 36.7496C35.6184 36.8755 35.5774 36.9839 35.4954 37.0748C35.4133 37.1656 35.2932 37.211 35.135 37.211C34.9797 37.211 34.8611 37.1656 34.7791 37.0748C34.697 36.9839 34.656 36.8755 34.656 36.7496Z" fill="white"/>
<defs>
<linearGradient id="paint0_linear_106_11433" x1="14.996" y1="14.959" x2="30.222" y2="14.959" gradientUnits="userSpaceOnUse">
<stop offset="4.79233e-09" stop-color="#FC8162"/>
<stop offset="1" stop-color="#FF406F"/>
</linearGradient>
<linearGradient id="paint1_linear_106_11433" x1="10.304" y1="32.1443" x2="31.786" y2="32.1443" gradientUnits="userSpaceOnUse">
<stop stop-color="#FD7E63"/>
<stop offset="1" stop-color="#FF486E"/>
</linearGradient>
</defs>
</svg>
