<svg width="29" height="27" viewBox="0 0 29 27" fill="none" xmlns="http://www.w3.org/2000/svg">
<path d="M24.3304 3.11768H23.6054V5.08991C23.6054 6.56937 22.3876 7.78714 20.9082 7.78714H19.226C17.7465 7.78714 16.5287 6.56937 16.5287 5.08991V3.11768H12.4699V5.08991C12.4699 6.56937 11.2521 7.78714 9.77265 7.78714H8.06211C6.58265 7.78714 5.36488 6.56937 5.36488 5.08991V3.11768H4.63988C2.46488 3.11768 0.695304 4.88714 0.695304 7.06226V22.6068C0.695304 24.7818 2.46477 26.5514 4.63988 26.5514H24.3022C26.4772 26.5514 28.2468 24.782 28.2468 22.6068L28.2456 7.06226C28.2751 4.88726 26.5054 3.11768 24.3304 3.11768ZM25.4043 22.635C25.4043 23.2444 24.9115 23.7077 24.3315 23.7077H4.66926C4.08926 23.7077 3.59649 23.215 3.59649 22.635V11.615H25.4042L25.4043 22.635Z" fill="url(#paint0_linear_332_59)"/>
<path d="M8.09042 5.98934H9.80096C10.2937 5.98934 10.7004 5.5838 10.7004 5.08987V1.31987C10.7004 0.827106 10.2949 0.42041 9.80096 0.42041H8.09042C7.59765 0.42041 7.19096 0.825946 7.19096 1.31987V5.08987C7.19209 5.58264 7.59762 5.98934 8.09042 5.98934Z" fill="url(#paint1_linear_332_59)"/>
<path d="M19.2273 5.98934H20.9378C21.4306 5.98934 21.8373 5.5838 21.8373 5.08987V1.31987C21.8373 0.827106 21.4318 0.42041 20.9378 0.42041H19.2273C18.7345 0.42041 18.3278 0.825946 18.3278 1.31987V5.08987C18.3278 5.58264 18.7345 5.98934 19.2273 5.98934Z" fill="url(#paint2_linear_332_59)"/>
<defs>
<linearGradient id="paint0_linear_332_59" x1="0.695304" y1="14.8345" x2="28.2468" y2="14.8345" gradientUnits="userSpaceOnUse">
<stop offset="4.79233e-09" stop-color="#FC8162"/>
<stop offset="1" stop-color="#FF406F"/>
</linearGradient>
<linearGradient id="paint1_linear_332_59" x1="7.19096" y1="3.20487" x2="10.7004" y2="3.20487" gradientUnits="userSpaceOnUse">
<stop offset="4.79233e-09" stop-color="#FC8162"/>
<stop offset="1" stop-color="#FF406F"/>
</linearGradient>
<linearGradient id="paint2_linear_332_59" x1="18.3278" y1="3.20487" x2="21.8373" y2="3.20487" gradientUnits="userSpaceOnUse">
<stop offset="4.79233e-09" stop-color="#FC8162"/>
<stop offset="1" stop-color="#FF406F"/>
</linearGradient>
</defs>
</svg>
