<svg width="18" height="18" viewBox="0 0 18 18" fill="none" xmlns="http://www.w3.org/2000/svg">
<path d="M17.37 8.65838H16.8117C16.7041 6.84002 15.9841 5.07602 14.7959 3.72602C13.5176 2.25016 11.6817 1.2602 9.75589 1.00766C8.80174 0.881796 7.81171 0.899375 6.85753 1.09766C5.90338 1.29594 5.00335 1.6918 4.19335 2.21351C2.57335 3.25766 1.33171 4.89515 0.773348 6.73187C0.233348 8.58605 0.359204 10.6019 1.15164 12.3477C1.92578 14.0935 3.36582 15.5335 5.07582 16.3435C6.8041 17.1535 8.80164 17.3152 10.62 16.8118C12.4384 16.3077 14.0584 15.1201 15.1016 13.5718C15.1734 13.4635 15.1375 13.3377 15.0475 13.2659C14.9392 13.1942 14.8134 13.2301 14.7416 13.3201C13.7341 14.7601 12.1858 15.8401 10.4758 16.2717C8.76582 16.7217 6.91164 16.5234 5.34582 15.75C3.77996 14.9942 2.48418 13.6617 1.81818 12.0417C1.13404 10.4399 1.04404 8.60329 1.56647 6.94747C2.08818 5.29162 3.22232 3.86911 4.68065 2.96911C5.40065 2.51911 6.21065 2.19497 7.05647 2.03326C7.90229 1.87154 8.76647 1.85326 9.61229 1.9974C11.304 2.24911 12.8706 3.13154 13.9506 4.44576C14.9589 5.63404 15.5348 7.1274 15.6248 8.6574H15.0665C14.9406 8.6574 14.8506 8.80154 14.9224 8.9274L16.0741 10.8358C16.1458 10.944 16.3082 10.944 16.3624 10.8358L17.5141 8.9274C17.5858 8.80154 17.5141 8.6581 17.3699 8.6581L17.37 8.65838Z" fill="url(#paint0_linear_1207_2321)"/>
<path d="M8.53164 3.56421C5.47164 3.56421 2.98746 6.04839 2.98746 9.10839C2.98746 12.1684 5.47164 14.6526 8.53164 14.6526C11.5916 14.6526 14.0758 12.1684 14.0758 9.10839C14.0941 6.04839 11.61 3.56421 8.53164 3.56421ZM10.62 9.70185H8.53164C8.18993 9.70185 7.91993 9.43185 7.91993 9.09014V6.19178C7.91993 5.85006 8.18993 5.58006 8.53164 5.58006C8.87335 5.58006 9.14335 5.85006 9.14335 6.19178V8.49596H10.6199C10.9616 8.49596 11.2316 8.76596 11.2316 9.10767C11.2316 9.45008 10.9616 9.70181 10.6199 9.70181L10.62 9.70185Z" fill="url(#paint1_linear_1207_2321)"/>
<defs>
<linearGradient id="paint0_linear_1207_2321" x1="0.444946" y1="9.01311" x2="17.5422" y2="9.01311" gradientUnits="userSpaceOnUse">
<stop offset="4.79233e-09" stop-color="#FC8162"/>
<stop offset="1" stop-color="#FF406F"/>
</linearGradient>
<linearGradient id="paint1_linear_1207_2321" x1="2.98746" y1="9.10839" x2="14.0759" y2="9.10839" gradientUnits="userSpaceOnUse">
<stop offset="4.79233e-09" stop-color="#FC8162"/>
<stop offset="1" stop-color="#FF406F"/>
</linearGradient>
</defs>
</svg>
