<svg width="134" height="68" viewBox="0 0 134 68" fill="none" xmlns="http://www.w3.org/2000/svg">
<g clip-path="url(#clip0_1155_5326)">
<path d="M49.504 54.799C60.8288 43.8643 60.8288 26.1357 49.504 15.201C38.1793 4.26634 19.8183 4.26634 8.49353 15.201C-2.83121 26.1357 -2.83121 43.8643 8.49353 54.799C19.8183 65.7337 38.1793 65.7337 49.504 54.799Z" fill="#7CCCBC"/>
<path opacity="0.15" fill-rule="evenodd" clip-rule="evenodd" d="M38.1629 61.573C35.2839 62.498 32.2028 63.0001 29.0013 63.0001C13.184 63.0001 0.322659 50.77 0.00732422 35.5741L19.2717 16.9733C21.6379 14.6212 24.9958 13.2057 29.0856 13.5381C43.1384 14.6793 42.8399 34.6979 34.35 42.7862L32.961 44.125C36.461 48.3969 46.2773 44.3923 46.2773 53.8728L38.1605 61.573H38.1629Z" fill="black"/>
<path fill-rule="evenodd" clip-rule="evenodd" d="M26.2596 39.96H31.7406C31.7406 50.7723 46.2773 42.3376 46.2773 53.8751H11.7205C11.7205 42.34 26.2572 50.7723 26.2572 39.96H26.2596Z" fill="#FFCD94"/>
<path fill-rule="evenodd" clip-rule="evenodd" d="M26.2595 39.96H31.7405C31.7405 40.6154 31.7959 41.1988 31.8946 41.7217C31.8537 41.7426 31.8128 41.7636 31.7742 41.7845C29.3743 43.0093 28.6257 43.0093 26.2258 41.7845C26.1849 41.7636 26.1439 41.7426 26.103 41.7217C26.2041 41.1988 26.2571 40.6154 26.2571 39.96H26.2595Z" fill="#EBBD88"/>
<path fill-rule="evenodd" clip-rule="evenodd" d="M44.9654 49.2708C45.7791 50.2865 46.2773 51.7368 46.2773 53.8751H11.7205C11.7205 46.8931 17.045 47.2255 21.2503 46.1796C23.2916 49.6032 28.5247 52.0389 34.6581 52.0389C38.7045 52.0389 42.3609 50.9768 44.9654 49.2708Z" fill="#FF339A"/>
<path fill-rule="evenodd" clip-rule="evenodd" d="M38.815 27.4044C38.815 32.7408 35.7628 38.0052 31.0279 40.4224C29.1119 41.4009 28.8904 41.4009 26.9719 40.4224C22.2371 38.0052 19.1848 32.7408 19.1848 27.4044C19.1848 13.108 38.8126 13.108 38.8126 27.4044H38.815Z" fill="#FFCD94"/>
<path fill-rule="evenodd" clip-rule="evenodd" d="M29.0854 13.5381C43.9158 14.7421 42.7652 36.971 32.8694 44.0134C32.1738 43.1047 31.7501 41.8403 31.7381 40.0297C35.1249 38.0216 37.6596 34.089 38.4155 29.982C38.0255 30.842 37.561 31.6973 36.716 32.4202C38.3553 28.799 37.7054 25.3452 35.2549 23.6137C33.878 25.7473 31.4829 27.2511 28.7605 27.7717C30.3805 26.842 31.6875 25.4986 32.4386 23.8693C30.6428 26.9071 26.907 28.4318 23.3612 27.8693C25.6023 27.4533 27.6363 26.2168 28.9097 24.3783C27.6917 25.645 24.5889 27.014 20.8963 26.8513C20.2801 30.9791 21.8616 35.3836 25.6528 38.0611C23.9727 37.3824 22.6752 36.813 21.7268 35.3069C22.5693 37.2429 24.4782 38.9815 26.2739 40.0413C26.4833 44.8943 23.3035 46.2865 22.2419 48.6201C21.5703 50.0959 22.071 51.5091 22.8509 52.806C20.0851 52.3783 17.4084 50.8932 16.2289 48.3226C14.3874 44.3086 19.2378 40.7479 18.3737 36.8223C18.0294 35.2557 17.1966 33.5916 16.4455 31.7857C12.9239 23.3138 18.5975 12.6874 29.083 13.5381H29.0854Z" fill="#760027"/>
<path opacity="0.1" fill-rule="evenodd" clip-rule="evenodd" d="M28.9989 53.8728H11.7205C11.7205 49.7775 13.5523 48.1993 15.9161 47.3835C15.1193 43.7461 19.173 40.4387 18.3762 36.8222C18.032 35.2557 17.1991 33.5916 16.4481 31.7856C12.9361 23.3371 18.5688 12.7479 28.9989 13.5335V53.8728Z" fill="black"/>
</g>
<path d="M105.457 62.4381C120.974 59.3736 131.009 44.602 127.872 29.4447C124.735 14.2874 109.613 4.48425 94.0958 7.54876C78.5789 10.6133 68.5432 25.3849 71.6804 40.5422C74.8176 55.6995 89.9398 65.5027 105.457 62.4381Z" fill="#7CCCBC"/>
<path opacity="0.15" fill-rule="evenodd" clip-rule="evenodd" d="M108.195 60.8398C105.39 61.7511 102.392 62.2479 99.2747 62.2479C83.8058 62.2456 71.2431 50.0931 71.0415 35.033L89.3465 17.1545C91.6809 14.8101 95.0583 13.3197 99.3591 13.5005C110.544 13.9722 113.968 27.0748 107.59 33.1304C107.565 33.1579 107.537 33.1831 107.511 33.2106C106.73 34.9437 105.629 36.5234 104.267 37.8215L101.958 40.079C102.446 49.8847 116.098 42.0731 116.098 53.2342L108.195 60.8421V60.8398Z" fill="black"/>
<path fill-rule="evenodd" clip-rule="evenodd" d="M96.6052 39.5272H101.942C101.942 50.1778 116.096 41.8693 116.096 53.2343H82.4487C82.4487 41.8716 96.6028 50.1778 96.6028 39.5272H96.6052Z" fill="#FFCD94"/>
<path fill-rule="evenodd" clip-rule="evenodd" d="M96.6052 39.5272H101.942C101.942 40.1729 101.996 40.7475 102.092 41.2626C102.052 41.2832 102.012 41.3038 101.975 41.3245C99.6381 42.531 98.9092 42.531 96.5724 41.3245C96.5326 41.3038 96.4927 41.2832 96.4529 41.2626C96.5513 40.7475 96.6029 40.1729 96.6029 39.5272H96.6052Z" fill="#EBBD88"/>
<path fill-rule="evenodd" clip-rule="evenodd" d="M88.3598 46.3452C87.1926 46.5971 86.0723 46.9176 85.123 47.4854C86.6465 48.9117 87.7293 50.9287 88.109 53.2319H110.441C110.818 50.9287 111.903 48.9117 113.424 47.4854C112.477 46.9153 111.355 46.5948 110.187 46.3452C107.973 49.3101 103.913 51.2973 99.2748 51.2973C94.6365 51.2973 90.577 49.3101 88.3622 46.3452H88.3598Z" fill="#46B8F1"/>
<path fill-rule="evenodd" clip-rule="evenodd" d="M108.828 27.1594C108.828 32.416 105.856 37.6017 101.246 39.9827C99.3801 40.9466 99.1645 40.9466 97.2965 39.9827C92.6863 37.6017 89.7144 32.416 89.7144 27.1594C89.7144 13.0769 108.826 13.0769 108.826 27.1594H108.828Z" fill="#FFCD94"/>
<path fill-rule="evenodd" clip-rule="evenodd" d="M99.3568 13.5005C110.588 13.9744 113.994 27.1846 107.509 33.2082C108.012 32.091 108.38 30.9096 108.598 29.6985C108.219 30.5456 107.635 31.3881 106.812 32.1001C108.409 28.5331 107.75 25.131 105.364 23.4253C104.021 25.5271 101.691 27.0083 99.0404 27.5212C100.618 26.6054 101.89 25.2821 102.622 23.6772C100.873 26.6695 97.2357 28.1714 93.7833 27.6173C95.9654 27.2075 97.9459 25.9895 99.1857 24.1786C97.9998 25.4263 94.9786 26.7748 91.3833 26.6146C90.7833 30.6806 92.1919 35.0192 95.8833 37.6567C94.6154 37.1392 93.5255 36.5554 92.5997 35.9052C93.4575 37.0774 94.4841 38.1191 95.6513 38.9662C80.1542 34.8841 83.4847 12.832 99.3568 13.5005Z" fill="black"/>
<path fill-rule="evenodd" clip-rule="evenodd" d="M99.2725 15.7716C104.616 15.7716 108.95 20.0048 108.95 25.2248C108.95 25.8155 108.894 26.3947 108.788 26.9557C107.956 22.5622 104.012 19.231 99.2725 19.231C94.5333 19.231 90.5887 22.5599 89.7567 26.9557C89.6512 26.3947 89.595 25.8155 89.595 25.2248C89.595 20.0048 93.9286 15.7716 99.2725 15.7716Z" fill="#46B8F1"/>
<path opacity="0.1" fill-rule="evenodd" clip-rule="evenodd" d="M99.2724 53.2319H82.4487C82.4487 41.8945 96.5396 50.1366 96.6028 39.5936C96.2771 39.399 95.9607 39.1883 95.6536 38.9663C80.1823 34.891 83.473 12.9144 99.2724 13.4982V53.2319Z" fill="black"/>
<circle cx="45" cy="6" r="6" fill="#FC0000"/>
<circle cx="115" cy="6" r="6" fill="#FC0000"/>
<defs>
<clipPath id="clip0_1155_5326">
<rect width="58" height="56" fill="white" transform="translate(0 7)"/>
</clipPath>
</defs>
</svg>
