<svg width="22" height="22" viewBox="0 0 22 22" fill="#d3d3d3" xmlns="http://www.w3.org/2000/svg">
<path d="M2.64 5.20257H11.8534C12.2066 6.50107 13.3848 7.40171 14.7297 7.40171C16.0754 7.40171 17.2537 6.50107 17.6068 5.20257H19.36C19.8008 5.20257 20.1583 4.84507 20.1583 4.40421C20.1583 3.96335 19.8008 3.60585 19.36 3.60585H17.6C17.2467 2.3082 16.0686 1.40671 14.7237 1.40671C13.3788 1.40671 12.1996 2.3082 11.8474 3.60585H2.63996C2.1991 3.60585 1.8416 3.96335 1.8416 4.40421C1.8416 4.84507 2.1991 5.20257 2.63996 5.20257H2.64ZM14.74 3.00514C15.3055 3.00858 15.8134 3.35232 16.0265 3.87568C16.2405 4.3999 16.1176 5.00061 15.7163 5.3985C15.3141 5.79639 14.7125 5.91325 14.1909 5.69499C13.6692 5.47671 13.3306 4.96538 13.3324 4.39992C13.3341 4.02867 13.4827 3.67288 13.7474 3.41078C14.0113 3.14953 14.3688 3.00342 14.74 3.00514Z" fill="#d3d3d3"/>
<path d="M19.36 10.2016H10.144C9.79249 8.90225 8.6143 8.00073 7.26858 8.00073C5.92366 8.00073 4.74452 8.90223 4.39318 10.2016H2.64005C2.19919 10.2016 1.84169 10.5591 1.84169 11C1.84169 11.4408 2.19919 11.7983 2.64005 11.7983H4.40005C4.75154 13.0977 5.92973 13.9992 7.27545 13.9992C8.62123 13.9992 9.79951 13.0977 10.1508 11.7983H19.3598C19.8007 11.7983 20.1582 11.4408 20.1582 11C20.1582 10.5591 19.8007 10.2016 19.3598 10.2016H19.36ZM7.26 12.399C6.69454 12.3956 6.1875 12.0527 5.97351 11.5294C5.75952 11.006 5.88156 10.4061 6.28287 10.0074C6.68334 9.60951 7.28491 9.4909 7.80655 9.70833C8.32819 9.92489 8.66765 10.4345 8.66765 11C8.66765 11.3721 8.51898 11.7296 8.25429 11.9917C7.99047 12.2547 7.63211 12.4008 7.26 12.399Z" fill="#d3d3d3"/>
<path d="M19.36 16.7974H17.6C17.2468 15.4989 16.0686 14.5983 14.7237 14.5983C13.3788 14.5983 12.1997 15.4989 11.8474 16.7974H2.64C2.19914 16.7974 1.84164 17.1549 1.84164 17.5958C1.84164 18.0367 2.19914 18.3942 2.64 18.3942H11.8534C12.2066 19.6918 13.3848 20.5933 14.7297 20.5933C16.0754 20.5933 17.2537 19.6918 17.6068 18.3942H19.36C19.8008 18.3942 20.1583 18.0367 20.1583 17.5958C20.1583 17.1549 19.8008 16.7974 19.36 16.7974H19.36ZM14.74 18.9974C14.1728 19.0009 13.6598 18.6614 13.4406 18.1389C13.2215 17.6164 13.3392 17.0123 13.7397 16.611C14.1393 16.2088 14.7426 16.0885 15.266 16.305C15.7902 16.5216 16.1313 17.0329 16.1305 17.6001C16.1253 18.3667 15.5066 18.988 14.74 18.9949L14.74 18.9974Z" fill="#d3d3d3"/>
</svg>
