<svg width="19" height="15" viewBox="0 0 19 15" fill="none" xmlns="http://www.w3.org/2000/svg">
<path d="M0.945251 0.242228C0.687451 0.270548 0.494076 0.49125 0.499951 0.750028V14.25C0.499951 14.5264 0.723584 14.75 0.999951 14.75H17.9999C18.1337 14.752 18.2626 14.7002 18.3583 14.6065C18.4531 14.5117 18.5068 14.3838 18.5068 14.25C18.5068 14.1162 18.4531 13.9883 18.3583 13.8936C18.2626 13.7998 18.1337 13.7481 17.9999 13.75H1.49995V0.750018C1.50288 0.606463 1.44429 0.467793 1.33784 0.370143C1.2314 0.273462 1.08882 0.226588 0.945266 0.242213L0.945251 0.242228ZM13.953 3.99998C13.8202 4.00584 13.6952 4.06443 13.6063 4.16306C13.5165 4.26072 13.4706 4.3906 13.4764 4.52341C13.4823 4.65622 13.5409 4.78121 13.6395 4.87009C13.7372 4.95993 13.8671 5.00583 13.9999 4.99997H15.7499L11.2421 9.07797L7.82813 6.11697C7.63672 5.95096 7.35158 5.95389 7.16408 6.12478L2.66408 10.1248C2.56545 10.2137 2.50588 10.3387 2.49806 10.4715C2.49123 10.6043 2.5381 10.7342 2.62697 10.8328C2.71681 10.9324 2.84181 10.991 2.97462 10.9968C3.10743 11.0037 3.23732 10.9568 3.33594 10.867L7.49994 7.16396L10.9219 10.125C11.1133 10.291 11.3985 10.2881 11.586 10.1172L16.5 5.6719V7.50003C16.498 7.63382 16.5498 7.76273 16.6435 7.85843C16.7383 7.95315 16.8662 8.00686 17 8.00686C17.1338 8.00686 17.2617 7.95315 17.3564 7.85843C17.4502 7.76272 17.502 7.63382 17.5 7.50003V4.50003C17.5 4.22365 17.2764 4.00003 17 4.00003H14C13.9844 3.99905 13.9688 3.99905 13.9531 4.00003L13.953 3.99998Z" fill="url(#paint0_linear_332_97)"/>
<defs>
<linearGradient id="paint0_linear_332_97" x1="0.499821" y1="7.49467" x2="18.5068" y2="7.49467" gradientUnits="userSpaceOnUse">
<stop offset="4.79233e-09" stop-color="#FC8162"/>
<stop offset="1" stop-color="#FF406F"/>
</linearGradient>
</defs>
</svg>
