<svg width="68" height="66" viewBox="0 0 68 66" fill="none" xmlns="http://www.w3.org/2000/svg">
<path d="M39.4567 60.4381C54.9735 57.3736 65.0093 42.602 61.872 27.4447C58.7348 12.2874 43.6127 2.48425 28.0958 5.54876C12.5789 8.61326 2.54321 23.3849 5.68042 38.5422C8.81763 53.6995 23.9398 63.5027 39.4567 60.4381Z" fill="#7CCCBC"/>
<path opacity="0.15" fill-rule="evenodd" clip-rule="evenodd" d="M42.1952 58.8398C39.3897 59.7511 36.392 60.2479 33.2747 60.2479C17.8058 60.2456 5.24307 48.0931 5.0415 33.033L23.3465 15.1545C25.6809 12.8101 29.0583 11.3197 33.3591 11.5005C44.5437 11.9722 47.9679 25.0748 41.5905 31.1304C41.5647 31.1579 41.5366 31.1831 41.5108 31.2106C40.7303 32.9437 39.6287 34.5234 38.267 35.8215L35.9584 38.079C36.4459 47.8847 50.0984 40.0731 50.0984 51.2342L42.1952 58.8421V58.8398Z" fill="black"/>
<path fill-rule="evenodd" clip-rule="evenodd" d="M30.6052 37.5272H35.942C35.942 48.1778 50.0961 39.8693 50.0961 51.2343H16.4487C16.4487 39.8716 30.6028 48.1778 30.6028 37.5272H30.6052Z" fill="#FFCD94"/>
<path fill-rule="evenodd" clip-rule="evenodd" d="M30.6052 37.5272H35.942C35.942 38.1729 35.9959 38.7475 36.092 39.2626C36.0522 39.2832 36.0123 39.3038 35.9748 39.3245C33.6381 40.531 32.9092 40.531 30.5724 39.3245C30.5326 39.3038 30.4927 39.2832 30.4529 39.2626C30.5513 38.7475 30.6029 38.1729 30.6029 37.5272H30.6052Z" fill="#EBBD88"/>
<path fill-rule="evenodd" clip-rule="evenodd" d="M22.3598 44.3452C21.1926 44.5971 20.0723 44.9176 19.123 45.4854C20.6465 46.9117 21.7293 48.9287 22.109 51.2319H44.4406C44.818 48.9287 45.9031 46.9117 47.4243 45.4854C46.4774 44.9153 45.3547 44.5948 44.1875 44.3452C41.9726 47.3101 37.9132 49.2973 33.2748 49.2973C28.6365 49.2973 24.577 47.3101 22.3622 44.3452H22.3598Z" fill="#46B8F1"/>
<path fill-rule="evenodd" clip-rule="evenodd" d="M42.8279 25.1594C42.8279 30.416 39.856 35.6017 35.2458 37.9827C33.3801 38.9466 33.1645 38.9466 31.2965 37.9827C26.6863 35.6017 23.7144 30.416 23.7144 25.1594C23.7144 11.0769 42.8256 11.0769 42.8256 25.1594H42.8279Z" fill="#FFCD94"/>
<path fill-rule="evenodd" clip-rule="evenodd" d="M33.3568 11.5005C44.5883 11.9744 47.9938 25.1846 41.5085 31.2082C42.0124 30.091 42.3804 28.9096 42.5984 27.6985C42.2187 28.5456 41.6351 29.3881 40.8124 30.1001C42.4085 26.5331 41.7499 23.131 39.364 21.4253C38.021 23.5271 35.6912 25.0083 33.0404 25.5212C34.6178 24.6054 35.8905 23.2821 36.6217 21.6772C34.8733 24.6695 31.2357 26.1714 27.7833 25.6173C29.9654 25.2075 31.9459 23.9895 33.1857 22.1786C31.9998 23.4263 28.9786 24.7748 25.3833 24.6146C24.7833 28.6806 26.1919 33.0192 29.8833 35.6567C28.6154 35.1392 27.5255 34.5554 26.5997 33.9052C27.4575 35.0774 28.4841 36.1191 29.6513 36.9662C14.1542 32.8841 17.4847 10.832 33.3568 11.5005Z" fill="black"/>
<path fill-rule="evenodd" clip-rule="evenodd" d="M33.2725 13.7716C38.6163 13.7716 42.9499 18.0048 42.9499 23.2248C42.9499 23.8155 42.8937 24.3947 42.7882 24.9557C41.9562 20.5622 38.0116 17.231 33.2725 17.231C28.5333 17.231 24.5887 20.5599 23.7567 24.9557C23.6512 24.3947 23.595 23.8155 23.595 23.2248C23.595 18.0048 27.9286 13.7716 33.2725 13.7716Z" fill="#46B8F1"/>
<path opacity="0.1" fill-rule="evenodd" clip-rule="evenodd" d="M33.2724 51.2319H16.4487C16.4487 39.8945 30.5396 48.1366 30.6028 37.5936C30.2771 37.399 29.9607 37.1883 29.6536 36.9663C14.1823 32.891 17.473 10.9144 33.2724 11.4982V51.2319Z" fill="black"/>
</svg>
