<svg width="111" height="108" viewBox="0 0 111 108" fill="none" xmlns="http://www.w3.org/2000/svg">
<path d="M82.7281 80.6101C97.9579 65.7702 97.9579 41.71 82.7281 26.87C67.4982 12.0301 42.8058 12.0301 27.576 26.87C12.3462 41.71 12.3462 65.7702 27.576 80.6101C42.8058 95.4501 67.4982 95.4501 82.7281 80.6101Z" fill="#7CCCBC"/>
<path opacity="0.15" fill-rule="evenodd" clip-rule="evenodd" d="M67.476 90.8034C63.6043 92.0588 59.4607 92.7401 55.1552 92.7401C33.8837 92.7401 16.5874 76.1421 16.1633 55.5192L42.0705 30.2753C45.2527 27.0831 49.7686 25.1621 55.2685 25.6132C74.1672 27.1619 73.7658 54.33 62.3483 65.3071L60.4804 67.1239C65.1873 72.9216 78.3885 67.4867 78.3885 80.3531L67.4727 90.8034H67.476Z" fill="black"/>
<path fill-rule="evenodd" clip-rule="evenodd" d="M51.468 61.4714H58.8391C58.8391 76.1453 78.3884 64.6983 78.3884 80.3563H31.9154C31.9154 64.7014 51.4648 76.1453 51.4648 61.4714H51.468Z" fill="#FFCD94"/>
<path fill-rule="evenodd" clip-rule="evenodd" d="M51.468 61.4714H58.8391C58.8391 62.3609 58.9136 63.1527 59.0463 63.8624C58.9913 63.8908 58.9362 63.9192 58.8844 63.9475C55.657 65.6099 54.6502 65.6099 51.4227 63.9475C51.3677 63.9192 51.3127 63.8908 51.2576 63.8624C51.3936 63.1527 51.4648 62.3609 51.4648 61.4714H51.468Z" fill="#EBBD88"/>
<path fill-rule="evenodd" clip-rule="evenodd" d="M76.6242 74.1076C77.7183 75.486 78.3884 77.4543 78.3884 80.3563H31.9154C31.9154 70.8807 39.0761 71.3318 44.7314 69.9123C47.4766 74.5586 54.5142 77.8644 62.7625 77.8644C68.2043 77.8644 73.1215 76.4228 76.6242 74.1076Z" fill="#FF339A"/>
<path fill-rule="evenodd" clip-rule="evenodd" d="M68.3532 44.4318C68.3532 51.6741 64.2485 58.8186 57.8809 62.0991C55.3041 63.4271 55.0063 63.4271 52.4263 62.0991C46.0587 58.8186 41.954 51.6741 41.954 44.4318C41.954 25.0296 68.35 25.0296 68.35 44.4318H68.3532Z" fill="#FFCD94"/>
<path fill-rule="evenodd" clip-rule="evenodd" d="M55.2685 25.6132C75.2128 27.2471 73.6654 57.415 60.3573 66.9725C59.4218 65.7392 58.852 64.0233 58.8358 61.566C63.3906 58.8407 66.7993 53.5036 67.8158 47.9299C67.2914 49.097 66.6666 50.2578 65.5303 51.2388C67.7349 46.3244 66.8608 41.6371 63.5654 39.2871C61.7137 42.1828 58.4927 44.2236 54.8314 44.9302C57.0101 43.6685 58.7679 41.8453 59.7779 39.6341C57.3629 43.7568 52.3388 45.826 47.5704 45.0627C50.5842 44.4981 53.3197 42.82 55.0321 40.3249C53.3941 42.044 49.2214 43.9019 44.2555 43.6811C43.4268 49.2831 45.5537 55.2606 50.6522 58.8943C48.3927 57.9733 46.6478 57.2005 45.3724 55.1565C46.5054 57.784 49.0725 60.1434 51.4874 61.5818C51.7691 68.168 47.4927 70.0575 46.0651 73.2244C45.162 75.2274 45.8353 77.1452 46.8841 78.9053C43.1646 78.3249 39.5649 76.3093 37.9786 72.8206C35.5022 67.3731 42.0251 62.5407 40.863 57.2131C40.4001 55.0871 39.28 52.8286 38.27 50.3777C33.534 38.8802 41.164 24.4587 55.2652 25.6132H55.2685Z" fill="#760027"/>
<path opacity="0.1" fill-rule="evenodd" clip-rule="evenodd" d="M55.1519 80.3531H31.9154C31.9154 74.7952 34.3789 72.6534 37.5578 71.5463C36.4863 66.6098 41.9377 62.1212 40.8662 57.2131C40.4033 55.0871 39.2832 52.8286 38.2732 50.3777C33.5502 38.9118 41.1252 24.5407 55.1519 25.6069V80.3531Z" fill="black"/>
</svg>
