<svg width="58" height="56" viewBox="0 0 58 56" fill="none" xmlns="http://www.w3.org/2000/svg">
<g clip-path="url(#clip0_998_150)">
<path d="M49.504 47.799C60.8288 36.8643 60.8288 19.1357 49.504 8.20102C38.1793 -2.73366 19.8183 -2.73366 8.49353 8.20102C-2.83121 19.1357 -2.83121 36.8643 8.49353 47.799C19.8183 58.7337 38.1793 58.7337 49.504 47.799Z" fill="#7CCCBC"/>
<path opacity="0.15" fill-rule="evenodd" clip-rule="evenodd" d="M38.1629 54.573C35.2839 55.498 32.2028 56.0001 29.0013 56.0001C13.184 56.0001 0.322659 43.77 0.00732422 28.5741L19.2717 9.97333C21.6379 7.6212 24.9958 6.20575 29.0856 6.53811C43.1384 7.67931 42.8399 27.6979 34.35 35.7862L32.961 37.125C36.461 41.3969 46.2773 37.3923 46.2773 46.8728L38.1605 54.573H38.1629Z" fill="black"/>
<path fill-rule="evenodd" clip-rule="evenodd" d="M26.2596 32.96H31.7406C31.7406 43.7723 46.2773 35.3376 46.2773 46.8751H11.7205C11.7205 35.34 26.2572 43.7723 26.2572 32.96H26.2596Z" fill="#FFCD94"/>
<path fill-rule="evenodd" clip-rule="evenodd" d="M26.2595 32.96H31.7405C31.7405 33.6154 31.7959 34.1988 31.8946 34.7217C31.8537 34.7426 31.8128 34.7636 31.7742 34.7845C29.3743 36.0093 28.6257 36.0093 26.2258 34.7845C26.1849 34.7636 26.1439 34.7426 26.103 34.7217C26.2041 34.1988 26.2571 33.6154 26.2571 32.96H26.2595Z" fill="#EBBD88"/>
<path fill-rule="evenodd" clip-rule="evenodd" d="M44.9654 42.2708C45.7791 43.2865 46.2773 44.7368 46.2773 46.8751H11.7205C11.7205 39.8931 17.045 40.2255 21.2503 39.1796C23.2916 42.6032 28.5247 45.0389 34.6581 45.0389C38.7045 45.0389 42.3609 43.9768 44.9654 42.2708Z" fill="#FF339A"/>
<path fill-rule="evenodd" clip-rule="evenodd" d="M38.815 20.4044C38.815 25.7408 35.7628 31.0052 31.0279 33.4224C29.1119 34.4009 28.8904 34.4009 26.9719 33.4224C22.2371 31.0052 19.1848 25.7408 19.1848 20.4044C19.1848 6.10804 38.8126 6.10804 38.8126 20.4044H38.815Z" fill="#FFCD94"/>
<path fill-rule="evenodd" clip-rule="evenodd" d="M29.0854 6.53812C43.9158 7.74207 42.7652 29.971 32.8694 37.0134C32.1738 36.1047 31.7501 34.8403 31.7381 33.0297C35.1249 31.0216 37.6596 27.089 38.4155 22.982C38.0255 23.842 37.561 24.6973 36.716 25.4202C38.3553 21.799 37.7054 18.3452 35.2549 16.6137C33.878 18.7473 31.4829 20.2511 28.7605 20.7717C30.3805 19.842 31.6875 18.4986 32.4386 16.8693C30.6428 19.9071 26.907 21.4318 23.3612 20.8693C25.6023 20.4533 27.6363 19.2168 28.9097 17.3783C27.6917 18.645 24.5889 20.014 20.8963 19.8513C20.2801 23.9791 21.8616 28.3836 25.6528 31.0611C23.9727 30.3824 22.6752 29.813 21.7268 28.3069C22.5693 30.2429 24.4782 31.9815 26.2739 33.0413C26.4833 37.8943 23.3035 39.2865 22.2419 41.6201C21.5703 43.0959 22.071 44.5091 22.8509 45.806C20.0851 45.3783 17.4084 43.8932 16.2289 41.3226C14.3874 37.3086 19.2378 33.7479 18.3737 29.8223C18.0294 28.2557 17.1966 26.5916 16.4455 24.7857C12.9239 16.3138 18.5975 5.68745 29.083 6.53812H29.0854Z" fill="#760027"/>
<path opacity="0.1" fill-rule="evenodd" clip-rule="evenodd" d="M28.9989 46.8728H11.7205C11.7205 42.7775 13.5523 41.1993 15.9161 40.3835C15.1193 36.7461 19.173 33.4387 18.3762 29.8222C18.032 28.2557 17.1991 26.5916 16.4481 24.7856C12.9361 16.3371 18.5688 5.74786 28.9989 6.53345V46.8728Z" fill="black"/>
</g>
<defs>
<clipPath id="clip0_998_150">
<rect width="58" height="56" fill="white"/>
</clipPath>
</defs>
</svg>
