<svg width="24" height="26" viewBox="0 0 24 26" fill="none" xmlns="http://www.w3.org/2000/svg">
<path d="M23.2051 14.125C23.2121 16.8503 22.2249 19.4829 20.4306 21.5331C18.6362 23.5833 16.1556 24.9095 13.4541 25.2623C10.7527 25.6153 8.01489 24.9726 5.75193 23.4539C3.4907 21.9351 1.85961 19.6429 1.16481 17.0092C0.470122 14.3739 0.759814 11.5768 1.97903 9.13993C3.19683 6.70291 5.26262 4.79473 7.7869 3.76945C8.35081 3.57961 8.96392 3.86226 9.18752 4.41353C9.41112 4.96479 9.16643 5.59336 8.63064 5.85072C6.04594 6.9026 4.09968 9.09914 3.36564 11.7922C2.63156 14.4837 3.19548 17.365 4.89002 19.5815C6.58454 21.7992 9.21578 23.0999 12.0058 23.0999C14.7958 23.0999 17.427 21.7991 19.1215 19.5815C20.8161 17.3652 21.38 14.4839 20.6459 11.7922C19.9118 9.09918 17.9656 6.90264 15.3809 5.85072C15.087 5.75228 14.8465 5.53572 14.7172 5.25449C14.5878 4.97183 14.5793 4.6498 14.6961 4.36151C14.8128 4.07463 15.0434 3.84682 15.3331 3.73572C15.6214 3.62322 15.9448 3.63588 16.2247 3.76947C18.2904 4.60057 20.0579 6.0307 21.3025 7.87707C22.547 9.72207 23.2093 11.899 23.2051 14.1249L23.2051 14.125ZM12.0001 13.3938C12.2982 13.3938 12.5851 13.2756 12.796 13.0647C13.007 12.8538 13.1251 12.5669 13.1251 12.2688V1.74994C13.1251 1.12836 12.6217 0.624939 12.0001 0.624939C11.3785 0.624939 10.8751 1.12836 10.8751 1.74994V12.2688C10.8751 12.5669 10.9932 12.8538 11.2041 13.0647C11.4151 13.2756 11.7019 13.3938 12.0001 13.3938H12.0001Z" fill="white"/>
</svg>
