<svg width="157" height="23" viewBox="0 0 157 23" fill="none" xmlns="http://www.w3.org/2000/svg">
<path d="M15.9417 4.21017C14.7046 3.67036 13.3726 3.37891 12.0219 3.35254C10.5034 3.35498 9.01216 3.75377 7.69718 4.50904C6.48398 5.22456 5.47893 6.24179 4.78083 7.46071C4.08273 8.67962 3.71563 10.0582 3.71563 11.461C3.71563 12.8638 4.08273 14.2424 4.78083 15.4613C5.47893 16.6802 6.48398 17.6975 7.69718 18.413C9.01224 19.1824 10.5093 19.5905 12.035 19.5955C13.3868 19.5678 14.7195 19.2718 15.9547 18.7249L17 22.1034C15.407 22.6926 13.7216 22.9962 12.0219 23C11.643 23 11.2772 23 10.8983 23C8.98188 22.8526 7.1259 22.2655 5.476 21.2847C3.85081 20.3464 2.49977 19.0028 1.55627 17.3864C0.0494334 14.789 -0.384063 11.7111 0.347229 8.80193C1.07852 5.89275 2.91742 3.37982 5.476 1.79323C7.12363 0.774596 8.99108 0.159964 10.9244 0H12.0089C13.706 0.000597334 15.3856 0.34088 16.9477 1.00057L15.9417 4.21017Z" fill="url(#paint0_linear_106_11448)"/>
<path d="M76.2075 9.84241V13.106H67.6766C67.6596 14.059 67.8347 15.0059 68.1919 15.8917C68.549 16.7774 69.081 17.5844 69.757 18.2658C70.8822 19.1688 72.7925 19.5558 75.4748 19.5558H78V23H75.4748C71.9857 23 69.3252 22.2819 67.4935 20.8458C65.1645 18.9624 64 15.845 64 11.4936C64 7.14209 65.1645 4.03328 67.4935 2.16713C69.2903 0.722378 71.9508 0 75.4748 0H78V3.3926H75.4748C73.4682 3.21602 71.4585 3.69661 69.757 4.75996C68.5794 5.70163 67.886 7.41728 67.6766 9.9198L76.2075 9.84241Z" fill="url(#paint1_linear_106_11448)"/>
<path d="M81 0H84V23H81V0Z" fill="white"/>
<path d="M101.497 0V3.32806H94.6927C94.1744 3.28593 93.6536 3.3628 93.1657 3.55347C92.6778 3.74414 92.2341 4.04414 91.8648 4.43313C91.4152 5.05571 91.2037 5.83606 91.2727 6.61758C91.2743 7.09067 91.4102 7.55222 91.6624 7.94193C91.9147 8.33165 92.2716 8.6314 92.6866 8.80202C93.6764 9.22883 94.7112 9.52654 95.7683 9.68865C97.5018 9.94596 99.1814 10.5152 100.735 11.3719C101.491 11.917 102.098 12.6658 102.493 13.5417C102.888 14.4177 103.057 15.3894 102.983 16.3576C103.028 17.2166 102.907 18.0762 102.626 18.8831C102.345 19.69 101.912 20.4268 101.352 21.0477C100.59 21.7421 99.7066 22.2698 98.7527 22.6005C97.7987 22.9313 96.7928 23.0586 95.7925 22.9752H88.4448V19.6471H95.8529C97.0128 19.7799 98.1782 19.4552 99.1279 18.7348C99.6023 18.0509 99.8179 17.2025 99.7322 16.3576C99.731 15.8683 99.5985 15.3894 99.3502 14.9774C99.1018 14.5654 98.748 14.2374 98.3303 14.0318C97.3536 13.5281 96.3104 13.1858 95.2366 13.0167C93.5218 12.7778 91.8488 12.2757 90.2696 11.5261C89.509 11.02 88.8959 10.2988 88.4989 9.44327C88.1019 8.58771 87.9367 7.63155 88.0218 6.68182C87.9754 5.83809 88.086 4.99293 88.3473 4.19473C88.6086 3.39653 89.0154 2.66099 89.5445 2.03025C90.2359 1.33463 91.0564 0.800394 91.9534 0.461824C92.8504 0.123254 93.804 -0.0121739 94.7532 0.0642424L101.497 0Z" fill="white"/>
<path d="M109.339 10.244H117.622V13.5425H109.339V23H106.001V6.48163C105.986 5.63029 106.135 4.78458 106.438 3.99599C106.742 3.20741 107.194 2.49244 107.767 1.89463C108.317 1.28582 108.979 0.803389 109.713 0.477493C110.446 0.151597 111.235 -0.0107648 112.031 0.000553542H118V3.58254H112.031C111.675 3.57859 111.322 3.65334 110.995 3.80199C110.667 3.95065 110.373 4.16994 110.131 4.44582C109.876 4.71172 109.675 5.02896 109.539 5.37868C109.403 5.72841 109.335 6.10349 109.339 6.48163V10.244Z" fill="url(#paint2_linear_106_11448)"/>
<path d="M123.545 6V16.8995C123.564 17.4026 123.705 17.8941 123.957 18.3334C124.209 18.7727 124.564 19.147 124.994 19.4255C126.023 20.1235 127.247 20.4977 128.5 20.4977C129.753 20.4977 130.977 20.1235 132.006 19.4255C132.433 19.1449 132.785 18.7697 133.035 18.3307C133.284 17.8917 133.424 17.4013 133.442 16.8995V6H137V16.7227C136.984 17.6043 136.749 18.469 136.317 19.2431C135.884 20.0172 135.266 20.6778 134.516 21.1684C132.748 22.3611 130.649 23 128.5 23C126.351 23 124.252 22.3611 122.484 21.1684C121.734 20.6778 121.116 20.0172 120.683 19.2431C120.251 18.469 120.016 17.6043 120 16.7227V6H123.545Z" fill="url(#paint3_linear_106_11448)"/>
<path d="M140 23V8.48519C139.997 6.24041 140.89 4.08603 142.483 2.49512C144.077 0.904202 146.241 0.00681009 148.5 0C150.759 0.00681009 152.923 0.904202 154.517 2.49512C156.11 4.08603 157.003 6.24041 157 8.48519V23H153.442V8.48519C153.377 7.22446 152.828 6.03665 151.907 5.16711C150.986 4.29757 149.764 3.81273 148.494 3.81273C147.223 3.81273 146.001 4.29757 145.08 5.16711C144.159 6.03665 143.61 7.22446 143.545 8.48519V23H140Z" fill="url(#paint4_linear_106_11448)"/>
<path d="M135 4C136.105 4 137 3.10456 137 1.99999C137 0.895426 136.105 0 135 0C133.895 0 133 0.895426 133 1.99999C133 3.10456 133.895 4 135 4Z" fill="white"/>
<path d="M122 4C123.105 4 124 3.10456 124 1.99999C124 0.895426 123.105 0 122 0C120.895 0 120 0.895426 120 1.99999C120 3.10456 120.895 4 122 4Z" fill="white"/>
<path d="M38.6628 3.34656C40.8034 5.5328 42 8.45427 42 11.4946C42 14.535 40.8034 17.4564 38.6628 19.6426C37.5926 20.7065 36.3197 21.5509 34.9175 22.1271C33.5152 22.7034 32.0113 23 30.4924 23C28.9734 23 27.4695 22.7034 26.0673 22.1271C24.665 21.5509 23.3921 20.7065 22.322 19.6426C20.1904 17.4518 19 14.5321 19 11.4946C19 8.45715 20.1904 5.53742 22.322 3.34656C23.3939 2.28576 24.6674 1.44412 26.0694 0.869861C27.4714 0.295599 28.9744 0 30.4924 0C32.0103 0 33.5134 0.295599 34.9154 0.869861C36.3174 1.44412 37.5908 2.28576 38.6628 3.34656ZM25.0171 17.6282C26.5104 18.9513 28.4464 19.6831 30.4531 19.6831C32.4599 19.6831 34.3958 18.9513 35.8891 17.6282C37.4762 15.9675 38.3601 13.771 38.3601 11.4881C38.3601 9.2053 37.4762 7.00876 35.8891 5.34807C34.3919 4.03295 32.4574 3.30639 30.4531 3.30639C28.4488 3.30639 26.5144 4.03295 25.0171 5.34807C23.4301 7.00876 22.5461 9.2053 22.5461 11.4881C22.5461 13.771 23.4301 15.9675 25.0171 17.6282Z" fill="url(#paint5_linear_106_11448)"/>
<path d="M57.761 19.5899C56.7666 20.6817 55.561 21.5488 54.2213 22.1358C52.8816 22.7228 51.4373 23.0166 49.9806 22.9987H45.7756C45.541 23.0082 45.3071 22.9659 45.0899 22.8745C44.8727 22.7832 44.6772 22.645 44.5166 22.4693C44.3491 22.3017 44.2169 22.1006 44.1281 21.8785C44.0393 21.6564 43.9959 21.418 44.0004 21.1781V1.80979C43.9951 1.56971 44.0382 1.33109 44.127 1.1089C44.2159 0.886702 44.3485 0.685722 44.5166 0.518572C44.6778 0.344531 44.8737 0.208281 45.091 0.119135C45.3083 0.0299901 45.5419 -0.00993607 45.7756 0.00209309H49.9806C51.4342 -0.0184445 52.8761 0.270441 54.2153 0.850509C55.5545 1.43058 56.7618 2.28922 57.761 3.37217C59.8371 5.54447 61 8.46502 61 11.5068C61 14.5487 59.8371 17.4692 57.761 19.6415V19.5899ZM57.5596 11.4552C57.5746 10.4181 57.3836 9.38879 56.9984 8.42983C56.6131 7.47086 56.0416 6.60234 55.3186 5.87713C54.6371 5.12716 53.81 4.53178 52.8907 4.12928C51.9714 3.72677 50.9801 3.52605 49.9806 3.54003H47.4626V19.3575H49.9806C50.9777 19.3708 51.9667 19.1723 52.8853 18.7745C53.804 18.3768 54.6325 17.7883 55.3186 17.0462C56.0384 16.3158 56.6077 15.4446 56.9927 14.4841C57.3777 13.5236 57.5705 12.4936 57.5596 11.4552Z" fill="url(#paint6_linear_106_11448)"/>
<defs>
<linearGradient id="paint0_linear_106_11448" x1="0.0798452" y1="11.409" x2="16.9869" y2="11.409" gradientUnits="userSpaceOnUse">
<stop stop-color="#FA0284"/>
<stop offset="1" stop-color="#FA1185"/>
</linearGradient>
<linearGradient id="paint1_linear_106_11448" x1="1330.16" y1="2278.38" x2="1479.96" y2="2278.38" gradientUnits="userSpaceOnUse">
<stop stop-color="#FA0284"/>
<stop offset="1" stop-color="#FA1185"/>
</linearGradient>
<linearGradient id="paint2_linear_106_11448" x1="106.001" y1="11.4809" x2="118" y2="11.4809" gradientUnits="userSpaceOnUse">
<stop stop-color="#DD6E4D"/>
<stop offset="1" stop-color="#DD6D4D"/>
</linearGradient>
<linearGradient id="paint3_linear_106_11448" x1="2403.78" y1="1729.12" x2="2627.16" y2="1729.12" gradientUnits="userSpaceOnUse">
<stop stop-color="#DD6E4D"/>
<stop offset="1" stop-color="#DD6D4D"/>
</linearGradient>
<linearGradient id="paint4_linear_106_11448" x1="2685.24" y1="2276.77" x2="2908.62" y2="2276.77" gradientUnits="userSpaceOnUse">
<stop stop-color="#DD6E4D"/>
<stop offset="1" stop-color="#DD6D4D"/>
</linearGradient>
<linearGradient id="paint5_linear_106_11448" x1="1282.62" y1="2278.15" x2="1686.96" y2="2278.15" gradientUnits="userSpaceOnUse">
<stop stop-color="#FA0284"/>
<stop offset="1" stop-color="#FA1185"/>
</linearGradient>
<linearGradient id="paint6_linear_106_11448" x1="1309.31" y1="2278.38" x2="1538.3" y2="2278.38" gradientUnits="userSpaceOnUse">
<stop stop-color="#FA0284"/>
<stop offset="1" stop-color="#FA1185"/>
</linearGradient>
</defs>
</svg>
