<svg width="29" height="27" viewBox="0 0 29 27" fill="none" xmlns="http://www.w3.org/2000/svg">
<path d="M18.88 0H9.28C4.16 0 0 4.16 0 9.28V11.808C0 15.808 2.528 19.328 6.304 20.608L6.688 20.736L6.496 21.088C5.984 21.952 5.312 23.328 4.416 25.28C4.32 25.504 4.352 25.792 4.544 25.984C4.736 26.176 4.992 26.208 5.248 26.112L16.128 21.12H18.88C24 21.12 28.16 16.96 28.16 11.84V9.312C28.16 4.192 24 0 18.88 0ZM6.816 12.544C5.856 12.544 5.056 11.744 5.056 10.784C5.056 9.824 5.856 9.024 6.816 9.024C7.776 9.024 8.576 9.824 8.576 10.784C8.576 11.744 7.776 12.544 6.816 12.544ZM14.08 12.544C13.12 12.544 12.32 11.744 12.32 10.784C12.32 9.824 13.12 9.024 14.08 9.024C15.04 9.024 15.84 9.824 15.84 10.784C15.84 11.744 15.04 12.544 14.08 12.544ZM21.344 12.544C20.384 12.544 19.584 11.744 19.584 10.784C19.584 9.824 20.384 9.024 21.344 9.024C22.304 9.024 23.104 9.824 23.104 10.784C23.072 11.744 22.304 12.544 21.344 12.544Z" fill="url(#paint0_linear_106_11399)"/>
<defs>
<linearGradient id="paint0_linear_106_11399" x1="0" y1="13.0822" x2="28.16" y2="13.0822" gradientUnits="userSpaceOnUse">
<stop offset="4.79233e-09" stop-color="#FC8162"/>
<stop offset="1" stop-color="#FF406F"/>
</linearGradient>
</defs>
</svg>
