<svg width="66" height="66" viewBox="0 0 66 66" fill="none" xmlns="http://www.w3.org/2000/svg">
<path fill-rule="evenodd" clip-rule="evenodd" d="M33.1154 3.43945C47.0987 3.43945 58.5629 14.9014 58.5629 29.1161C58.5629 43.0993 47.101 54.5635 33.1154 54.5635C18.9008 54.5635 7.43884 43.1016 7.43884 29.1161C7.43884 14.9014 18.9008 3.43945 33.1154 3.43945ZM43.2022 21.5511H34.2621C34.2621 11.2358 28.7612 18.5718 31.9693 21.7799C37.2414 27.052 44.3488 25.6768 44.3488 35.7632C44.3488 41.7238 41.5984 45.3923 35.1796 46.3099V52.0419H31.0539V46.3099C23.029 45.6211 22.1138 40.1201 22.1138 33.7018H31.0539C31.0539 35.5348 30.8251 38.9739 31.2827 40.3492C31.5115 41.2668 33.3467 41.2668 34.0332 40.578C34.7219 39.4316 34.262 35.7636 34.0332 34.6174C33.1156 31.6381 25.5507 30.0318 23.0289 24.7597C19.5896 18.1123 23.2577 11.9226 31.0537 11.2341V5.96202H35.1794V11.2341C41.5977 11.9229 43.6619 15.8197 43.2043 21.5494L43.2022 21.5511Z" fill="#FFC700"/>
<g filter="url(#filter0_d_1112_10433)">
<path d="M33.1154 0C48.9338 0 62 13.068 62 29.1154C62 44.9338 48.932 58 33.1154 58C17.068 58 4 44.932 4 29.1154C4 13.068 17.068 0 33.1154 0ZM33.1154 2.2928C18.2146 2.2928 6.29274 14.2147 6.29274 29.1155C6.29274 43.7877 18.2146 55.7096 33.1154 55.7096C47.7877 55.7096 59.7096 43.7877 59.7096 29.1155C59.7096 14.2147 47.7877 2.2928 33.1154 2.2928Z" fill="#E4A80C"/>
</g>
<defs>
<filter id="filter0_d_1112_10433" x="0" y="0" width="66" height="66" filterUnits="userSpaceOnUse" color-interpolation-filters="sRGB">
<feFlood flood-opacity="0" result="BackgroundImageFix"/>
<feColorMatrix in="SourceAlpha" type="matrix" values="0 0 0 0 0 0 0 0 0 0 0 0 0 0 0 0 0 0 127 0" result="hardAlpha"/>
<feOffset dy="4"/>
<feGaussianBlur stdDeviation="2"/>
<feComposite in2="hardAlpha" operator="out"/>
<feColorMatrix type="matrix" values="0 0 0 0 0 0 0 0 0 0 0 0 0 0 0 0 0 0 0.25 0"/>
<feBlend mode="normal" in2="BackgroundImageFix" result="effect1_dropShadow_1112_10433"/>
<feBlend mode="normal" in="SourceGraphic" in2="effect1_dropShadow_1112_10433" result="shape"/>
</filter>
</defs>
</svg>
