<svg width="27" height="27" viewBox="0 0 27 27" fill="none" xmlns="http://www.w3.org/2000/svg">
<path d="M20.979 24.3H5.64299C4.02299 24.3 2.72699 23.004 2.72699 21.384V6.04802C2.72699 4.42802 4.02299 3.13202 5.64299 3.13202H20.952C22.572 3.13202 23.868 4.42802 23.868 6.04802V21.357C23.895 23.004 22.599 24.3 20.979 24.3Z" fill="white"/>
<path d="M22.977 5.53501C23.9313 5.53501 24.705 4.76136 24.705 3.80701C24.705 2.85266 23.9313 2.07901 22.977 2.07901C22.0226 2.07901 21.249 2.85266 21.249 3.80701C21.249 4.76136 22.0226 5.53501 22.977 5.53501Z" fill="#FC0000"/>
<path d="M13.311 4.75201C8.36998 4.75201 4.34698 8.74801 4.34698 13.716C4.34698 18.657 8.34298 22.68 13.311 22.68C18.279 22.68 22.275 18.657 22.275 13.716C22.275 8.77501 18.252 4.75201 13.311 4.75201ZM13.311 18.684C12.663 18.684 12.15 18.171 12.15 17.523H14.499C14.472 18.144 13.959 18.684 13.311 18.684ZM17.253 16.335C17.253 16.767 16.902 16.794 16.47 16.794H10.152C9.71998 16.794 9.36898 16.767 9.36898 16.335V16.254C9.36898 15.957 9.53098 15.687 9.82798 15.552L10.071 13.419C10.071 11.88 11.178 10.557 12.636 10.233V9.42301C12.636 9.04501 12.933 8.74801 13.311 8.74801C13.689 8.74801 13.986 9.04501 13.986 9.42301V10.233C15.444 10.53 16.551 11.853 16.551 13.419L16.794 15.552C17.037 15.687 17.253 15.957 17.253 16.254V16.335Z" fill="url(#paint0_linear_106_11488)"/>
<defs>
<linearGradient id="paint0_linear_106_11488" x1="4.34698" y1="13.716" x2="22.275" y2="13.716" gradientUnits="userSpaceOnUse">
<stop offset="4.79233e-09" stop-color="#FC8162"/>
<stop offset="1" stop-color="#FF406F"/>
</linearGradient>
</defs>
</svg>
