<svg width="21" height="18" viewBox="0 0 21 18" fill="none" xmlns="http://www.w3.org/2000/svg">
<path d="M20.1919 5.94571C19.7457 5.94571 19.3839 6.30748 19.3839 6.75373C19.3839 8.61584 18.8064 10.3458 17.8237 11.7757C16.6293 10.6116 15.1863 9.75933 13.6155 9.27121C14.672 8.38198 15.3464 7.05067 15.3464 5.56513C15.3464 2.89246 13.1724 0.71875 10.5 0.71875C7.82752 0.71875 5.6536 2.89267 5.6536 5.56513C5.6536 7.05153 6.32789 8.38207 7.38446 9.27121C5.81356 9.75929 4.37054 10.6116 3.17627 11.7757C2.19271 10.3459 1.61521 8.61664 1.61521 6.75373C1.61521 6.30748 1.25345 5.94571 0.807198 5.94571C0.361767 5.94571 0 6.30666 0 6.75291C0 12.5426 4.7103 17.2529 10.5 17.2529C16.2897 17.2529 21 12.5426 21 6.75291C21 6.30666 20.6382 5.94571 20.192 5.94571H20.1919ZM7.26875 5.56427C7.26875 3.78254 8.71823 2.333 10.5 2.333C12.2818 2.333 13.7313 3.78248 13.7313 5.56427C13.7313 7.34517 12.2818 8.7947 10.5 8.7947C8.71823 8.7947 7.26875 7.34521 7.26875 5.56427ZM10.5 15.6378C8.04554 15.6378 5.82101 14.6378 4.21157 13.0235C5.87353 11.3566 8.12702 10.4109 10.5 10.4109C12.873 10.4109 15.1257 11.3567 16.7885 13.0235C15.179 14.637 12.9543 15.6378 10.5 15.6378Z" fill="url(#paint0_linear_724_63)"/>
<defs>
<linearGradient id="paint0_linear_724_63" x1="0" y1="8.98583" x2="21" y2="8.98583" gradientUnits="userSpaceOnUse">
<stop offset="4.79233e-09" stop-color="#FC8162"/>
<stop offset="1" stop-color="#FF406F"/>
</linearGradient>
</defs>
</svg>
