<svg width="15" height="16" viewBox="0 0 15 16" fill="none" xmlns="http://www.w3.org/2000/svg">
<path d="M9.23264 3.74494C9.38381 3.90744 9.52561 4.07744 9.65569 4.25869C9.60998 4.19619 9.56311 4.13244 9.51799 4.06993C9.77463 4.42744 9.98791 4.81869 10.152 5.23243C10.1227 5.15743 10.0934 5.08243 10.0641 5.00869C10.2311 5.43494 10.3453 5.88243 10.4039 6.33993C10.3934 6.25744 10.3834 6.1743 10.3735 6.08993C10.4321 6.55869 10.4321 7.03368 10.3735 7.50243C10.384 7.41993 10.394 7.3368 10.4039 7.25243C10.3453 7.70993 10.2311 8.15742 10.0641 8.58368C10.0934 8.50868 10.1227 8.43368 10.152 8.35993C9.98791 8.77557 9.77406 9.16619 9.51799 9.52243C9.56369 9.45993 9.61057 9.39618 9.65569 9.33368C9.39377 9.69493 9.08851 10.0199 8.75041 10.2993C8.809 10.2506 8.86876 10.2006 8.92736 10.1524C8.5922 10.4262 8.22541 10.6537 7.83752 10.8287C7.90783 10.7974 7.97815 10.7662 8.04728 10.7349C7.64767 10.9131 7.22815 11.0349 6.79924 11.0974C6.87658 11.0862 6.95452 11.0756 7.03361 11.0649C6.59416 11.1274 6.14885 11.1274 5.7094 11.0649C5.78674 11.0762 5.86468 11.0868 5.94377 11.0974C5.51486 11.0349 5.09534 10.9131 4.69573 10.7349C4.76604 10.7662 4.83635 10.7974 4.90549 10.8287C4.51583 10.6537 4.14962 10.4256 3.81565 10.1524C3.87424 10.2012 3.93401 10.2512 3.9926 10.2993C3.65393 10.0199 3.34924 9.69432 3.08732 9.33368C3.13303 9.39618 3.1799 9.45993 3.22502 9.52243C2.96838 9.16493 2.7551 8.77368 2.59103 8.35993C2.62032 8.43493 2.64962 8.50994 2.67892 8.58368C2.51192 8.15742 2.39767 7.70993 2.33908 7.25243C2.34963 7.33493 2.35959 7.41806 2.36955 7.50243C2.31095 7.03368 2.31095 6.55869 2.36955 6.08993C2.359 6.17243 2.34904 6.25557 2.33908 6.33993C2.39767 5.88243 2.51192 5.43494 2.67892 5.00869C2.64962 5.08369 2.62033 5.15869 2.59103 5.23243C2.7551 4.8168 2.96895 4.42617 3.22502 4.06993C3.17931 4.13243 3.13244 4.19618 3.08732 4.25869C3.34924 3.89744 3.6545 3.57243 3.9926 3.29305C3.93401 3.3418 3.87424 3.3918 3.81565 3.43993C4.15081 3.16619 4.5176 2.93868 4.90549 2.76367C4.83517 2.79492 4.76486 2.82617 4.69573 2.85742C5.09534 2.6793 5.51486 2.55742 5.94377 2.49493C5.86643 2.50618 5.78849 2.5168 5.7094 2.52743C6.14885 2.46493 6.59416 2.46493 7.03361 2.52743C6.95627 2.51618 6.87833 2.50555 6.79924 2.49493C7.22815 2.55743 7.64767 2.6793 8.04728 2.85742C7.97697 2.82617 7.90666 2.79492 7.83752 2.76367C8.22718 2.93868 8.59339 3.16679 8.92736 3.43993C8.86877 3.39118 8.809 3.34118 8.75041 3.29305C8.92091 3.43243 9.08087 3.5843 9.23263 3.74493C9.392 3.91493 9.62813 4.01993 9.85372 4.01993C10.0693 4.01993 10.3266 3.91868 10.4748 3.74493C10.6283 3.5668 10.7432 3.33243 10.7326 3.08243C10.7221 2.83368 10.6436 2.59806 10.4748 2.41993C10.0559 1.97619 9.56777 1.58557 9.04043 1.30118C8.53126 1.02368 7.9834 0.81243 7.41803 0.711182C6.84967 0.611182 6.28249 0.573683 5.71178 0.653683C5.39245 0.698683 5.07779 0.750558 4.76725 0.847427C4.4567 0.942427 4.15495 1.07368 3.86197 1.2193C3.33052 1.4818 2.84126 1.8518 2.41001 2.27556C1.97525 2.70556 1.59556 3.22055 1.30727 3.77431C1.03189 4.30431 0.818018 4.8868 0.703763 5.48055C0.587747 6.07868 0.538523 6.70055 0.593606 7.31063C0.624074 7.64938 0.670949 7.99063 0.748886 8.32312C0.819199 8.62312 0.917636 8.91063 1.03014 9.195C1.14439 9.4825 1.26921 9.76188 1.42272 10.0294C1.59381 10.3262 1.79479 10.6056 2.00748 10.8719C2.18032 11.0875 2.36959 11.2875 2.57115 11.47C2.8231 11.6981 3.08794 11.9125 3.37095 12.095C3.65103 12.2775 3.94633 12.42 4.24986 12.5525C4.48131 12.6537 4.71978 12.7387 4.96353 12.8025C5.51899 12.9481 6.10493 13.015 6.67562 12.9775C7.2428 12.94 7.81351 12.8306 8.34677 12.6162C8.65028 12.4944 8.95145 12.3537 9.23447 12.1837C9.52276 12.01 9.78701 11.8025 10.046 11.5837C10.5148 11.1887 10.912 10.6994 11.2413 10.17C11.5589 9.65876 11.8009 9.07938 11.9573 8.49C12.0452 8.15876 12.095 7.8225 12.136 7.4825C12.1683 7.21687 12.1829 6.94813 12.1771 6.67938C12.1642 6.07312 12.0728 5.45312 11.8929 4.8781C11.7083 4.28872 11.4505 3.71685 11.103 3.21442C10.9109 2.93629 10.7075 2.66567 10.479 2.42068C10.3208 2.25068 10.0818 2.14567 9.85792 2.14567C9.6423 2.14567 9.38508 2.24692 9.23684 2.42068C9.08333 2.5988 8.96847 2.83317 8.97902 3.08317C8.98546 3.3313 9.06456 3.56567 9.23273 3.74504L9.23264 3.74494Z" fill="#909090"/>
<path d="M9.23264 11.1737C9.35452 11.3037 9.47756 11.435 9.59885 11.5644C9.89357 11.8787 10.186 12.1906 10.4807 12.505C10.8381 12.8862 11.1955 13.2675 11.5529 13.6487C11.8606 13.9768 12.1682 14.305 12.4758 14.6331C12.6252 14.7925 12.7735 14.955 12.924 15.1112L12.9299 15.1175C13.0893 15.2875 13.3254 15.3925 13.551 15.3925C13.7666 15.3925 14.0238 15.2912 14.1721 15.1175C14.3256 14.9393 14.4404 14.705 14.4299 14.455C14.4193 14.2062 14.3408 13.9725 14.1721 13.7925C14.0502 13.6625 13.9272 13.5312 13.8059 13.4019C13.5111 13.0875 13.2188 12.7756 12.924 12.4612C12.5666 12.08 12.2092 11.6987 11.8518 11.3175L10.9289 10.3331C10.7795 10.1737 10.6313 10.0112 10.4807 9.85499C10.4795 9.85374 10.476 9.84999 10.4748 9.84874C10.3154 9.67874 10.0793 9.57373 9.85373 9.57373C9.63811 9.57373 9.38089 9.67498 9.23264 9.84874C9.07913 10.0269 8.96428 10.2612 8.97482 10.5112C8.98537 10.7594 9.06447 10.995 9.23264 11.1737Z" fill="#909090"/>
</svg>
