<svg width="13" height="14" viewBox="0 0 13 14" fill="none" xmlns="http://www.w3.org/2000/svg">
<path d="M8.11761 3.33099C8.2556 3.47005 8.38504 3.61553 8.50378 3.77065C8.46206 3.71716 8.41927 3.6626 8.37809 3.60911C8.61236 3.91506 8.80705 4.24989 8.95682 4.60397C8.93008 4.53978 8.90333 4.4756 8.87659 4.41249C9.02903 4.77727 9.13333 5.16023 9.18681 5.55176C9.17718 5.48115 9.16809 5.41001 9.159 5.33781C9.21249 5.73896 9.21249 6.14546 9.159 6.54661C9.16863 6.47601 9.17772 6.40486 9.18681 6.33266C9.13333 6.72419 9.02903 7.10714 8.87659 7.47193C8.90333 7.40775 8.93008 7.34356 8.95682 7.28045C8.80705 7.63614 8.61184 7.97044 8.37809 8.2753C8.41981 8.22182 8.4626 8.16726 8.50378 8.11377C8.2647 8.42292 7.98604 8.70106 7.67741 8.94015C7.73089 8.89843 7.78545 8.85564 7.83894 8.81446C7.53299 9.04872 7.19816 9.24342 6.84409 9.39319C6.90827 9.36644 6.97245 9.3397 7.03556 9.31296C6.67078 9.4654 6.28782 9.56969 5.8963 9.62318C5.9669 9.61355 6.03804 9.60446 6.11024 9.59536C5.70909 9.64885 5.3026 9.64885 4.90144 9.59536C4.97205 9.60499 5.04319 9.61409 5.11539 9.62318C4.72386 9.56969 4.34091 9.4654 3.97612 9.31296C4.04031 9.3397 4.10449 9.36644 4.1676 9.39319C3.81191 9.24342 3.47762 9.0482 3.17275 8.81446C3.22623 8.85618 3.28079 8.89896 3.33428 8.94015C3.02513 8.70106 2.74699 8.4224 2.5079 8.11377C2.54962 8.16726 2.59241 8.22181 2.6336 8.2753C2.39933 7.96936 2.20463 7.63453 2.05486 7.28045C2.08161 7.34464 2.10835 7.40882 2.13509 7.47193C1.98265 7.10714 1.87836 6.72419 1.82487 6.33266C1.8345 6.40326 1.8436 6.47441 1.85269 6.54661C1.7992 6.14546 1.7992 5.73896 1.85269 5.33781C1.84306 5.40841 1.83397 5.47955 1.82487 5.55176C1.87836 5.16023 1.98265 4.77727 2.13509 4.41249C2.10835 4.47667 2.08161 4.54086 2.05486 4.60397C2.20463 4.24827 2.39985 3.91398 2.6336 3.60911C2.59188 3.6626 2.54909 3.71716 2.5079 3.77065C2.74699 3.46149 3.02565 3.18335 3.33428 2.94427C3.28079 2.98599 3.22624 3.02878 3.17275 3.06996C3.4787 2.83569 3.81352 2.641 4.1676 2.49123C4.10342 2.51797 4.03923 2.54471 3.97612 2.57146C4.34091 2.41902 4.72386 2.31472 5.11539 2.26124C5.04479 2.27087 4.97364 2.27996 4.90144 2.28905C5.3026 2.23556 5.70909 2.23556 6.11024 2.28905C6.03964 2.27942 5.9685 2.27033 5.8963 2.26124C6.28782 2.31472 6.67078 2.41902 7.03556 2.57146C6.97138 2.54472 6.9072 2.51797 6.84409 2.49123C7.19978 2.641 7.53407 2.83621 7.83894 3.06996C7.78545 3.02824 7.7309 2.98545 7.67741 2.94427C7.83305 3.06354 7.97907 3.19351 8.1176 3.33097C8.26308 3.47646 8.47863 3.56632 8.68455 3.56632C8.88139 3.56632 9.11619 3.47968 9.25151 3.33097C9.39164 3.17853 9.49649 2.97796 9.48686 2.76402C9.47723 2.55114 9.40556 2.3495 9.25151 2.19706C8.86908 1.81731 8.42353 1.48302 7.94215 1.23964C7.47736 1.00216 6.97725 0.821374 6.46116 0.734727C5.94233 0.649148 5.42458 0.617057 4.90362 0.68552C4.61212 0.724031 4.32489 0.768425 4.04141 0.851324C3.75793 0.932624 3.48248 1.04495 3.21503 1.16957C2.7299 1.39421 2.28329 1.71085 1.88963 2.0735C1.49276 2.44149 1.14616 2.88222 0.882998 3.35612C0.631615 3.80969 0.436385 4.30818 0.332089 4.8163C0.226184 5.32817 0.18125 5.86036 0.231533 6.38246C0.259345 6.67237 0.302134 6.9644 0.373279 7.24895C0.437463 7.50569 0.527321 7.75173 0.630016 7.99509C0.734315 8.24113 0.848249 8.48022 0.988379 8.70913C1.14456 8.9632 1.32802 9.20228 1.52217 9.43013C1.67995 9.61467 1.85273 9.78582 2.03671 9.942C2.26671 10.1372 2.50847 10.3207 2.76681 10.4769C3.02247 10.633 3.29204 10.755 3.56911 10.8684C3.78039 10.955 3.99808 11.0278 4.22058 11.0823C4.72763 11.207 5.26251 11.2642 5.78346 11.2321C6.3012 11.2 6.82217 11.1064 7.30895 10.923C7.58601 10.8187 7.86093 10.6983 8.11928 10.5528C8.38244 10.4041 8.62367 10.2266 8.86008 10.0394C9.28798 9.70131 9.65061 9.28252 9.95122 8.82949C10.2411 8.39197 10.462 7.89614 10.6048 7.39176C10.6851 7.10828 10.7305 6.82052 10.768 6.52955C10.7974 6.30223 10.8107 6.07224 10.8054 5.84225C10.7936 5.32342 10.7102 4.79283 10.546 4.30073C10.3775 3.79635 10.1422 3.30695 9.825 2.87697C9.64957 2.63895 9.46396 2.40736 9.25535 2.19769C9.11094 2.05221 8.89272 1.96234 8.6884 1.96234C8.49156 1.96234 8.25676 2.04899 8.12144 2.19769C7.98131 2.35013 7.87646 2.5507 7.88609 2.76465C7.89197 2.977 7.96418 3.17757 8.11769 3.33107L8.11761 3.33099Z" fill="white"/>
<path d="M8.11877 9.68957C8.23003 9.80083 8.34235 9.91315 8.45307 10.0239C8.7221 10.2929 8.98901 10.5598 9.25804 10.8288C9.58431 11.1551 9.91058 11.4814 10.2368 11.8076C10.5177 12.0885 10.7985 12.3693 11.0793 12.6501C11.2156 12.7864 11.351 12.9255 11.4884 13.0592L11.4938 13.0646C11.6393 13.2101 11.8548 13.2999 12.0607 13.2999C12.2576 13.2999 12.4924 13.2133 12.6277 13.0646C12.7678 12.9121 12.8727 12.7116 12.863 12.4976C12.8534 12.2847 12.7817 12.0847 12.6277 11.9307C12.5164 11.8194 12.4041 11.7071 12.2934 11.5964C12.0244 11.3273 11.7575 11.0604 11.4884 10.7914C11.1622 10.4651 10.8359 10.1389 10.5096 9.8126L9.66721 8.97019C9.53082 8.8338 9.3955 8.69473 9.25804 8.56101C9.25697 8.55994 9.25376 8.55673 9.25269 8.55566C9.1072 8.41018 8.89165 8.32031 8.68573 8.32031C8.4889 8.32031 8.2541 8.40696 8.11877 8.55566C7.97864 8.7081 7.8738 8.90867 7.88343 9.12262C7.89305 9.33496 7.96526 9.5366 8.11877 9.68957Z" fill="white"/>
</svg>
