<svg width="21" height="22" viewBox="0 0 21 22" fill="none" xmlns="http://www.w3.org/2000/svg">
<path d="M12.9258 5.1493C13.1374 5.37273 13.3359 5.60648 13.5181 5.85569C13.4541 5.76976 13.3884 5.6821 13.3253 5.59616C13.6846 6.08773 13.9832 6.62569 14.2129 7.19459C14.1719 7.09147 14.1308 6.98834 14.0898 6.88694C14.3236 7.47305 14.4836 8.08834 14.5656 8.71741C14.5508 8.60397 14.5369 8.48967 14.5229 8.37366C14.605 9.01819 14.605 9.67131 14.5229 10.3158C14.5377 10.2024 14.5517 10.0881 14.5656 9.97209C14.4836 10.6012 14.3236 11.2165 14.0898 11.8026C14.1308 11.6994 14.1719 11.5963 14.2129 11.4949C13.9832 12.0664 13.6838 12.6035 13.3253 13.0933C13.3893 13.0074 13.4549 12.9198 13.5181 12.8338C13.1514 13.3305 12.724 13.7774 12.2507 14.1616C12.3327 14.0945 12.4164 14.0258 12.4984 13.9596C12.0292 14.336 11.5157 14.6488 10.9726 14.8895C11.0711 14.8465 11.1695 14.8035 11.2663 14.7605C10.7068 15.0055 10.1195 15.173 9.51903 15.259C9.62731 15.2435 9.73642 15.2289 9.84715 15.2143C9.23192 15.3002 8.60849 15.3002 7.99325 15.2143C8.10153 15.2298 8.21065 15.2444 8.32138 15.259C7.7209 15.173 7.13358 15.0055 6.57412 14.7605C6.67255 14.8035 6.77099 14.8465 6.86778 14.8895C6.32226 14.6488 5.80957 14.3352 5.342 13.9596C5.42403 14.0266 5.50771 14.0954 5.58974 14.1616C5.1156 13.7774 4.68903 13.3297 4.32235 12.8338C4.38633 12.9197 4.45196 13.0074 4.51512 13.0933C4.15583 12.6018 3.85724 12.0638 3.62754 11.4949C3.66855 11.598 3.70957 11.7012 3.75058 11.8026C3.51679 11.2165 3.35684 10.6012 3.27481 9.97209C3.28957 10.0855 3.30352 10.1998 3.31746 10.3158C3.23543 9.67131 3.23543 9.01819 3.31746 8.37366C3.3027 8.4871 3.28875 8.6014 3.27481 8.71741C3.35684 8.08834 3.51679 7.47305 3.75058 6.88694C3.70957 6.99007 3.66855 7.09319 3.62754 7.19459C3.85724 6.6231 4.15663 6.08599 4.51512 5.59616C4.45114 5.6821 4.38551 5.76975 4.32235 5.85569C4.68903 5.35898 5.1164 4.91209 5.58974 4.52795C5.50771 4.59498 5.42404 4.66373 5.342 4.7299C5.81123 4.35351 6.32474 4.04069 6.86778 3.80005C6.76934 3.84302 6.67091 3.88599 6.57412 3.92896C7.13358 3.68403 7.7209 3.51646 8.32138 3.43053C8.2131 3.44599 8.10399 3.4606 7.99325 3.47521C8.60849 3.38928 9.23192 3.38928 9.84715 3.47521C9.73887 3.45974 9.62976 3.44513 9.51903 3.43053C10.1195 3.51646 10.7068 3.68403 11.2663 3.92896C11.1679 3.88599 11.0694 3.84302 10.9726 3.80005C11.5181 4.04069 12.0308 4.35434 12.4984 4.7299C12.4164 4.66287 12.3327 4.59412 12.2507 4.52795C12.4894 4.71959 12.7133 4.92842 12.9258 5.14927C13.1489 5.38302 13.4795 5.52741 13.7953 5.52741C14.0972 5.52741 14.4573 5.38819 14.6648 5.14927C14.8797 4.90435 15.0405 4.58209 15.0258 4.23834C15.011 3.89631 14.9011 3.57234 14.6648 3.32741C14.0783 2.71726 13.395 2.18015 12.6567 1.78913C11.9439 1.40756 11.1769 1.11709 10.3853 0.977876C9.58963 0.840376 8.79558 0.788814 7.99659 0.898814C7.54952 0.960689 7.10901 1.03202 6.67424 1.16521C6.23948 1.29584 5.81702 1.47631 5.40685 1.67654C4.66282 2.03747 3.97787 2.54622 3.37412 3.12889C2.76545 3.72014 2.23388 4.42825 1.83028 5.18967C1.44474 5.91842 1.14532 6.71935 0.985366 7.53575C0.822944 8.35818 0.75403 9.21325 0.831147 10.0521C0.873802 10.5179 0.939427 10.9871 1.04854 11.4443C1.14698 11.8568 1.28479 12.2521 1.44229 12.6431C1.60225 13.0384 1.77699 13.4226 1.9919 13.7904C2.23143 14.1986 2.51281 14.5827 2.81056 14.9488C3.05255 15.2453 3.31753 15.5203 3.5997 15.7712C3.95244 16.0849 4.32322 16.3797 4.71942 16.6306C5.11153 16.8815 5.52496 17.0775 5.9499 17.2597C6.27393 17.3989 6.60778 17.5158 6.94903 17.6034C7.72668 17.8037 8.54701 17.8956 9.34597 17.8441C10.14 17.7925 10.939 17.6421 11.6856 17.3473C12.1105 17.1798 12.5321 16.9864 12.9284 16.7527C13.332 16.5138 13.7019 16.2284 14.0645 15.9277C14.7208 15.3845 15.2769 14.7116 15.738 13.9838C16.1826 13.2808 16.5214 12.4841 16.7404 11.6738C16.8634 11.2183 16.9331 10.7559 16.9906 10.2884C17.0357 9.92319 17.0562 9.55368 17.048 9.18415C17.0299 8.35055 16.902 7.49805 16.6501 6.70739C16.3917 5.89699 16.0308 5.11067 15.5444 4.41983C15.2753 4.0374 14.9907 3.66529 14.6707 3.32843C14.4492 3.09468 14.1146 2.95029 13.8012 2.95029C13.4993 2.95029 13.1392 3.08951 12.9317 3.32843C12.7168 3.57335 12.556 3.89561 12.5707 4.23936C12.5797 4.58054 12.6905 4.90279 12.9259 5.14943L12.9258 5.1493Z" fill="#909090"/>
<path d="M12.9259 15.3639C13.0965 15.5426 13.2687 15.7231 13.4385 15.901C13.8512 16.3332 14.2605 16.7621 14.6731 17.1943C15.1735 17.7186 15.6739 18.2428 16.1743 18.767C16.6049 19.2182 17.0356 19.6693 17.4663 20.1205C17.6754 20.3396 17.883 20.5631 18.0938 20.7779L18.102 20.7865C18.3251 21.0203 18.6557 21.1647 18.9715 21.1647C19.2734 21.1647 19.6335 21.0254 19.8411 20.7865C20.056 20.5416 20.2168 20.2193 20.202 19.8756C20.1872 19.5336 20.0773 19.2122 19.8411 18.9647C19.6704 18.7859 19.4982 18.6054 19.3284 18.4275C18.9158 17.9953 18.5064 17.5664 18.0938 17.1342C17.5934 16.61 17.093 16.0858 16.5926 15.5615L15.3007 14.208C15.0915 13.9889 14.8839 13.7655 14.6731 13.5506C14.6715 13.5489 14.6665 13.5437 14.6649 13.542C14.4418 13.3083 14.1112 13.1639 13.7954 13.1639C13.4935 13.1639 13.1334 13.3031 12.9259 13.542C12.7109 13.7869 12.5501 14.1092 12.5649 14.4529C12.5797 14.7941 12.6904 15.1181 12.9259 15.3639V15.3639Z" fill="#909090"/>
</svg>
