<svg width="15" height="15" viewBox="0 0 15 15" fill="none" xmlns="http://www.w3.org/2000/svg">
<path d="M10.625 0.25005C9.53125 0.251027 8.4834 0.686575 7.71 1.46C6.9366 2.23343 6.50102 3.2813 6.50005 4.375V6.5H4.37505C3.2813 6.5 2.2315 6.93457 1.45805 7.708C0.684599 8.48142 0.25005 9.53125 0.25005 10.625C0.25005 11.7188 0.684624 12.7685 1.45805 13.542C2.23147 14.3154 3.2813 14.75 4.37505 14.75C5.4688 14.75 6.5186 14.3154 7.29205 13.542C8.0655 12.7686 8.50005 11.7188 8.50005 10.625V8.5H10.625C12.0987 8.5 13.4611 7.71388 14.1973 6.4375C14.9346 5.16113 14.9346 3.58875 14.1973 2.3125C13.461 1.03612 12.0987 0.25 10.625 0.25L10.625 0.25005ZM6.5 10.625C6.5 11.4844 5.98242 12.2598 5.18847 12.5879C4.39452 12.917 3.48047 12.7354 2.87207 12.128C2.26465 11.5196 2.08302 10.6055 2.41212 9.8116C2.74025 9.01765 3.51565 8.50007 4.37502 8.50007H6.50002L6.5 10.625ZM10.625 6.50005H8.5V4.37505C8.5 3.51568 9.01758 2.74027 9.81153 2.41215C10.6055 2.08305 11.5195 2.26469 12.1279 2.8721C12.7354 3.4805 12.917 4.39455 12.5879 5.1885C12.2598 5.98245 11.4844 6.50003 10.625 6.50003L10.625 6.50005Z" fill="url(#paint0_linear_332_116)"/>
<defs>
<linearGradient id="paint0_linear_332_116" x1="0.25005" y1="7.5" x2="14.7503" y2="7.5" gradientUnits="userSpaceOnUse">
<stop offset="4.79233e-09" stop-color="#FC8162"/>
<stop offset="1" stop-color="#FF406F"/>
</linearGradient>
</defs>
</svg>
