<svg width="50" height="57" viewBox="0 0 50 57" fill="none" xmlns="http://www.w3.org/2000/svg">
<path d="M44 16.2891L45.3594 14.9375V14.9414C45.7461 14.5547 45.9609 14.0351 45.9609 13.4883C45.9609 12.9453 45.7461 12.4258 45.3594 12.0391L45.2695 12C44.4687 11.2031 43.1718 11.2031 42.3711 12L41.0625 13.3086H41.0586C34.6289 7.76561 25.7816 5.95311 17.6836 8.51951C9.58982 11.0898 3.40262 17.6718 1.34362 25.9105C-0.714979 34.1488 1.6444 42.8675 7.57802 48.9415C13.5116 55.0196 22.172 57.5821 30.457 55.7188C38.7422 53.8516 45.469 47.8243 48.227 39.7928C50.9848 31.7616 49.3832 22.8708 43.9887 16.3088L44 16.2891ZM25 52.2891C19.5625 52.2891 14.348 50.1289 10.504 46.2852C6.65997 42.4415 4.50007 37.2266 4.50007 31.7892C4.50007 26.3518 6.66027 21.1412 10.504 17.2932C14.3478 13.4494 19.5626 11.2893 25 11.2893C30.4374 11.2893 35.652 13.4495 39.496 17.2932C43.3398 21.1409 45.4999 26.3518 45.4999 31.7892C45.4842 37.2189 43.3163 42.4182 39.4765 46.2542C35.6327 50.0901 30.4296 52.2464 24.9995 52.2503L25 52.2891ZM17.4102 2.07007C17.4102 0.964568 18.3047 0.0700684 19.4102 0.0700684H30.4102C31.5157 0.0700684 32.4102 0.964598 32.4102 2.07007C32.4102 3.17557 31.5156 4.07007 30.4102 4.07007H19.4102C18.3047 4.07007 17.4102 3.17554 17.4102 2.07007ZM41.2812 31.6291C41.246 35.8869 39.5312 39.9533 36.5117 42.9531C33.4883 45.9492 29.4062 47.6289 25.1487 47.6289C21.0979 47.6289 17.2034 46.0625 14.2817 43.2617L25.0007 31.6287V15.6287C33.0007 15.6287 41.2817 22.8084 41.2817 31.6287L41.2812 31.6291Z" fill="url(#paint0_linear_302_530)"/>
<defs>
<linearGradient id="paint0_linear_302_530" x1="0.613159" y1="28.193" x2="49.554" y2="28.193" gradientUnits="userSpaceOnUse">
<stop offset="4.79233e-09" stop-color="#FC8162"/>
<stop offset="1" stop-color="#FF406F"/>
</linearGradient>
</defs>
</svg>
